<svg width="120" height="106" viewBox="0 0 120 106" fill="none" xmlns="http://www.w3.org/2000/svg">
<g clip-path="url(#clip0_695_2093)">
<path d="M62.2109 105.026C90.4356 105.026 113.316 82.2095 113.316 54.064C113.316 25.9185 90.4356 3.10205 62.2109 3.10205C33.9861 3.10205 11.1055 25.9185 11.1055 54.064C11.1055 82.2095 33.9861 105.026 62.2109 105.026Z" fill="#2A2E38"/>
<path d="M111.362 37.0422V85.5432C111.362 85.7483 111.362 85.8508 111.362 86.0559C111.26 88.8245 109.923 91.2854 107.969 92.926C106.221 94.4641 103.959 95.387 101.491 95.387H23.2391C21.491 95.387 19.9486 94.9768 18.509 94.1565C17.8921 93.8489 17.2751 93.4387 16.7609 92.926C15.6298 92.0032 14.7044 90.7727 14.1903 89.3372C13.7789 88.3118 13.4705 87.2864 13.4705 86.1584V37.0422C13.4705 37.0422 17.5836 33.5559 23.4448 28.7366C29.5116 23.6096 37.5322 17.0471 44.5244 11.2024C48.5347 7.8186 48.1234 8.22876 54.2931 2.99927C59.0232 -0.999757 65.9126 -0.999757 70.6427 2.99927C71.8766 4.02466 73.1106 5.15259 74.3445 6.17798C76.9152 8.22876 79.7944 10.6897 82.7764 13.1506C89.0489 18.3801 95.9383 24.1223 101.388 28.634C106.941 33.2483 110.951 36.6321 111.362 37.0422Z" fill="#526DFF"/>
<path d="M101.388 28.6342V46.0658L84.3187 56.3197L79.1773 59.3959L68.3804 65.8559L63.239 68.932L61.0796 70.2651L59.0231 68.932L54.1902 65.8559L43.9074 59.3959L39.0745 56.3197L23.239 46.3735V28.7367C29.3059 23.6098 37.3264 17.0473 44.3187 11.2026L82.5706 13.1508C89.1516 18.3803 96.0411 24.1225 101.388 28.6342Z" fill="#465DD9"/>
<path d="M97.9949 14.7915V45.3482L82.3651 54.6792L77.7379 57.4478L67.8664 63.2925L63.2392 66.061L61.2854 67.189L59.4345 66.061L55.0129 63.2925L45.6556 57.4478L41.234 54.6792L26.8381 45.6558V14.7915C26.8381 11.6128 29.4088 8.94678 32.6993 8.94678H92.1338C95.3214 8.94678 97.9949 11.6128 97.9949 14.7915Z" fill="#646E87"/>
<path d="M85.2442 31.6079H41.3368C40.617 31.6079 40 30.9927 40 30.1724C40 29.3521 40.617 28.7368 41.3368 28.7368H85.2442C85.964 28.7368 86.581 29.3521 86.581 30.1724C86.581 30.9927 85.964 31.6079 85.2442 31.6079Z" fill="#2B313A"/>
<path d="M85.2442 40.2212H41.3368C40.617 40.2212 40 39.606 40 38.7857C40 37.9653 40.617 37.3501 41.3368 37.3501H85.2442C85.964 37.3501 86.581 37.9653 86.581 38.7857C86.581 39.606 85.964 40.2212 85.2442 40.2212Z" fill="#2B313A"/>
<path d="M85.2442 48.8345H41.3368C40.617 48.8345 40 48.2193 40 47.3989C40 46.5786 40.617 45.9634 41.3368 45.9634H85.2442C85.964 45.9634 86.581 46.5786 86.581 47.3989C86.581 48.2193 85.964 48.8345 85.2442 48.8345Z" fill="#2B313A"/>
<path d="M82.365 54.6792L77.7377 57.4478H45.6555L41.2339 54.6792H41.3367H82.365Z" fill="#2B313A"/>
<path d="M67.8664 63.2925L63.2392 66.1636H59.4345L55.0129 63.2925H67.8664Z" fill="#2B313A"/>
<path d="M75.7841 21.7642H50.8997C50.18 21.7642 49.563 21.1489 49.563 20.3286C49.563 19.5083 50.18 18.8931 50.8997 18.8931H75.7841C76.5039 18.8931 77.1208 19.5083 77.1208 20.3286C77.1208 21.1489 76.5039 21.7642 75.7841 21.7642Z" fill="url(#paint0_linear_695_2093)"/>
<path opacity="0.67" d="M13.8818 36.8374L60.8741 39.9136L110.643 36.8374L108.792 45.7583C108.792 45.7583 62.0052 70.1626 62.3137 70.1626C62.6222 70.1626 13.9847 41.2466 13.9847 41.2466L13.8818 36.8374Z" fill="url(#paint1_linear_695_2093)"/>
<path d="M111.362 37.0425V86.0562C111.26 88.8247 109.923 91.2857 107.969 92.9263C106.221 94.4644 103.959 95.3872 101.491 95.3872H23.2391C21.491 95.3872 19.9486 94.9771 18.509 94.1568C17.8921 93.8491 17.2751 93.439 16.7609 92.9263C15.6298 92.0034 14.7044 90.773 14.1903 89.3374C13.7789 88.312 13.4705 87.2866 13.4705 86.1587V86.0562V37.0425L57.2751 64.4204L61.0797 66.7788L62.4165 65.9585L63.6504 65.2407L111.362 37.0425Z" fill="#738DFF"/>
<path d="M108.072 92.9263C106.324 94.4644 104.062 95.3872 101.594 95.3872H23.2391C21.491 95.3872 19.9486 94.9771 18.509 94.1568C17.8921 93.8491 17.2751 93.439 16.7609 92.9263C15.6298 92.0034 14.7044 90.773 14.1903 89.3374C13.7789 88.312 13.4705 87.2866 13.4705 86.1587V86.0562V37.0425L18.6118 40.1187L62.4165 66.0611L63.6504 66.7788L63.7532 66.8814L103.033 90.0552L108.072 92.9263Z" fill="url(#paint2_linear_695_2093)"/>
<path d="M63.6503 65.2407V68.6245L18.509 94.1568C17.892 93.8491 17.275 93.439 16.7609 92.9263C15.6298 92.0034 14.7043 90.773 14.1902 89.3374L58.0976 63.395L61.9023 65.7534L62.4164 65.9585L63.6503 65.2407Z" fill="url(#paint3_linear_695_2093)"/>
<path d="M13.4705 37.0425L62.4165 66.061" stroke="#A6BDFF" stroke-width="0.5" stroke-miterlimit="10"/>
<path d="M111.363 37.0425V86.0562C111.26 88.8247 109.923 91.2857 107.969 92.9263C106.221 94.4644 103.959 95.3872 101.491 95.3872H23.2391C21.4911 95.3872 19.9486 94.9771 18.5091 94.1568C17.8921 93.8491 17.2751 93.439 16.761 92.9263L21.7995 89.9527L61.0798 66.7788L62.4165 65.9585L63.6504 65.2407L106.221 40.0161L111.363 37.0425Z" fill="url(#paint4_linear_695_2093)"/>
<path d="M111.363 37.0425L63.6504 65.2407L62.4165 65.9585L61.0798 66.7788L16.761 92.9263" stroke="#99B3FF" stroke-width="0.5" stroke-miterlimit="10"/>
<path d="M99.6402 71.2905H73.6248C73.0078 71.2905 72.4937 70.7778 72.4937 70.1626C72.4937 69.5474 73.0078 69.0347 73.6248 69.0347H99.6402C100.257 69.0347 100.771 69.5474 100.771 70.1626C100.771 70.7778 100.257 71.2905 99.6402 71.2905Z" fill="url(#paint5_linear_695_2093)"/>
<path d="M99.6402 78.7757H73.6248C73.0078 78.7757 72.4937 78.263 72.4937 77.6478C72.4937 77.0325 73.0078 76.5198 73.6248 76.5198H99.6402C100.257 76.5198 100.771 77.0325 100.771 77.6478C100.771 78.263 100.257 78.7757 99.6402 78.7757Z" fill="url(#paint6_linear_695_2093)"/>
<path d="M116.093 32.4282C118.251 32.4282 120 30.6837 120 28.5318C120 26.3798 118.251 24.6353 116.093 24.6353C113.934 24.6353 112.185 26.3798 112.185 28.5318C112.185 30.6837 113.934 32.4282 116.093 32.4282Z" fill="#2A2E39"/>
<path d="M13.3676 18.1752C14.7873 18.1752 15.9383 17.0275 15.9383 15.6117C15.9383 14.196 14.7873 13.0483 13.3676 13.0483C11.9478 13.0483 10.7969 14.196 10.7969 15.6117C10.7969 17.0275 11.9478 18.1752 13.3676 18.1752Z" fill="#2A2E39"/>
<path d="M1.74807 24.7378C2.71351 24.7378 3.49614 23.9574 3.49614 22.9946C3.49614 22.0319 2.71351 21.2515 1.74807 21.2515C0.782639 21.2515 0 22.0319 0 22.9946C0 23.9574 0.782639 24.7378 1.74807 24.7378Z" fill="#2A2E39"/>
<path d="M111.568 15.9195C112.477 15.9195 113.213 15.1849 113.213 14.2788C113.213 13.3727 112.477 12.6382 111.568 12.6382C110.659 12.6382 109.923 13.3727 109.923 14.2788C109.923 15.1849 110.659 15.9195 111.568 15.9195Z" fill="#2A2E39"/>
<path d="M118.149 69.3422C119.058 69.3422 119.794 68.6077 119.794 67.7016C119.794 66.7955 119.058 66.061 118.149 66.061C117.241 66.061 116.504 66.7955 116.504 67.7016C116.504 68.6077 117.241 69.3422 118.149 69.3422Z" fill="#2A2E39"/>
<path opacity="0.3" d="M106.221 40.0161V45.1431L111.362 42.5796V37.0425L106.221 40.0161ZM106.221 65.3433V73.6489L111.362 71.0855V62.7798L106.221 65.3433ZM106.221 79.4937V85.8511C106.118 86.5689 105.913 87.3892 105.501 88.0044C105.398 88.107 105.398 88.2095 105.296 88.312L111.362 85.2359V76.9302L106.221 79.4937ZM104.987 94.3618L103.445 95.1821C105.193 94.8745 106.632 94.0542 107.969 93.0288C107.969 93.0288 107.969 93.0288 108.072 93.0288C108.175 93.0288 108.175 92.9263 108.278 92.8237L104.987 94.3618ZM13.4705 79.1861V86.0562V86.1587C13.4705 86.5689 13.5733 86.979 13.6761 87.3892L18.6118 84.8257V76.52L13.4705 79.1861ZM13.4705 50.6802V58.9859L18.6118 56.4224V48.1167L13.4705 50.6802ZM13.4705 37.0425V44.8355L18.6118 42.272V40.1187L13.4705 37.0425ZM13.4705 64.9331V73.2388L18.6118 70.6753V62.3696L13.4705 64.9331ZM23.2391 90.2603C22.725 90.2603 22.2108 90.1577 21.7995 90.0552C21.491 89.9527 21.2854 89.8501 20.9769 89.7476C20.9769 89.7476 20.9769 89.7476 20.8741 89.7476L15.9383 92.3111C16.2468 92.6187 16.4525 92.8238 16.7609 93.1314C17.2751 93.6441 17.8921 93.9517 18.509 94.3618C18.9203 94.6695 19.4345 94.8745 19.9486 94.9771L29.5116 90.3628H23.2391V90.2603ZM42.4679 90.2603L31.671 95.3872H43.3933L54.1903 90.2603H42.4679ZM66.9409 90.2603L56.144 95.3872H67.8663L78.6633 90.2603H66.9409ZM91.5167 90.2603L80.7198 95.3872H90.18L100.977 90.2603H91.5167ZM106.221 51.0903V59.396L111.362 56.8325V48.5269L106.221 51.0903Z" fill="#526DFF"/>
<path d="M104.987 94.3615L108.175 92.7209C108.072 92.8234 108.072 92.8234 107.969 92.926C107.969 92.926 107.969 92.926 107.866 92.926L104.987 94.3615Z" fill="#526DFF"/>
</g>
<defs>
<linearGradient id="paint0_linear_695_2093" x1="49.5842" y1="20.3492" x2="77.0528" y2="20.3492" gradientUnits="userSpaceOnUse">
<stop stop-color="#FF66A9"/>
<stop offset="1" stop-color="#F53689"/>
</linearGradient>
<linearGradient id="paint1_linear_695_2093" x1="62.203" y1="80.6575" x2="62.203" y2="39.0442" gradientUnits="userSpaceOnUse">
<stop stop-color="#4F6AFF"/>
<stop offset="1" stop-color="#657EFF" stop-opacity="0"/>
</linearGradient>
<linearGradient id="paint2_linear_695_2093" x1="14.5701" y1="66.188" x2="110.04" y2="66.188" gradientUnits="userSpaceOnUse">
<stop stop-color="#83A6FF"/>
<stop offset="1" stop-color="#5A78FF"/>
</linearGradient>
<linearGradient id="paint3_linear_695_2093" x1="41.7548" y1="81.6013" x2="37.9204" y2="75.9892" gradientUnits="userSpaceOnUse">
<stop stop-color="#4F6AFF"/>
<stop offset="1" stop-color="#657EFF" stop-opacity="0"/>
</linearGradient>
<linearGradient id="paint4_linear_695_2093" x1="107.349" y1="66.188" x2="13.6969" y2="66.188" gradientUnits="userSpaceOnUse">
<stop stop-color="#83A6FF"/>
<stop offset="1" stop-color="#5A78FF"/>
</linearGradient>
<linearGradient id="paint5_linear_695_2093" x1="72.4282" y1="70.1671" x2="100.77" y2="70.1671" gradientUnits="userSpaceOnUse">
<stop stop-color="#83A6FF"/>
<stop offset="1" stop-color="#5A78FF"/>
</linearGradient>
<linearGradient id="paint6_linear_695_2093" x1="72.4282" y1="77.606" x2="100.77" y2="77.606" gradientUnits="userSpaceOnUse">
<stop stop-color="#83A6FF"/>
<stop offset="1" stop-color="#5A78FF"/>
</linearGradient>
<clipPath id="clip0_695_2093">
<rect width="120" height="106" fill="white"/>
</clipPath>
</defs>
</svg>
