<svg width="32" height="32" viewBox="0 0 32 32" fill="none" xmlns="http://www.w3.org/2000/svg">
<g clip-path="url(#clip0_701_7437)">
<path d="M6.19998 3.2C6.19998 1.76406 7.36404 0.6 8.79998 0.6H21.6C21.697 0.6 21.79 0.638528 21.8586 0.707106L30.4929 9.34142C30.5614 9.41 30.6 9.50301 30.6 9.6V28.8C30.6 30.2359 29.4359 31.4 28 31.4H8.79998C7.36404 31.4 6.19998 30.2359 6.19998 28.8V3.2Z" stroke="#D0D5DD" stroke-width="1.2"/>
<path d="M21.6 0.400024V6.40003C21.6 8.16734 23.0327 9.60002 24.8 9.60002H30.8" stroke="#D0D5DD" stroke-width="1.2"/>
<path d="M0.800049 15.8C0.800049 14.9164 1.51639 14.2 2.40005 14.2H20C20.8837 14.2 21.6 14.9164 21.6 15.8V25.8C21.6 26.6837 20.8837 27.4 20 27.4H2.40005C1.51639 27.4 0.800049 26.6837 0.800049 25.8V15.8Z" fill="#F23838"/>
<path d="M5.83205 23.912C5.25605 23.912 4.79738 23.7547 4.45604 23.44C4.12004 23.1253 3.95204 22.6853 3.95204 22.12V21.592H5.00804V22.12C5.00804 22.3707 5.07738 22.568 5.21605 22.712C5.35471 22.8507 5.54938 22.92 5.80005 22.92C6.03471 22.92 6.21605 22.8507 6.34405 22.712C6.47738 22.5733 6.54404 22.376 6.54404 22.12V19.16H5.58405V18.2H8.24005V19.16H7.60005V22.12C7.60005 22.7013 7.44271 23.1467 7.12805 23.456C6.81338 23.76 6.38138 23.912 5.83205 23.912ZM9.10686 23.8V18.2H11.4109C11.7629 18.2 12.0722 18.272 12.3389 18.416C12.6109 18.5547 12.8215 18.752 12.9709 19.008C13.1255 19.264 13.2029 19.568 13.2029 19.92V20.032C13.2029 20.3787 13.1229 20.6827 12.9629 20.944C12.8082 21.2 12.5949 21.4 12.3229 21.544C12.0562 21.6827 11.7522 21.752 11.4109 21.752H10.1629V23.8H9.10686ZM10.1629 20.792H11.3069C11.5575 20.792 11.7602 20.7227 11.9149 20.584C12.0695 20.4453 12.1469 20.256 12.1469 20.016V19.936C12.1469 19.696 12.0695 19.5067 11.9149 19.368C11.7602 19.2293 11.5575 19.16 11.3069 19.16H10.1629V20.792ZM15.871 23.912C15.487 23.912 15.1376 23.8267 14.823 23.656C14.5136 23.48 14.2656 23.2267 14.079 22.896C13.8976 22.56 13.807 22.152 13.807 21.672V20.328C13.807 19.608 14.0096 19.056 14.415 18.672C14.8203 18.2827 15.3696 18.088 16.063 18.088C16.751 18.088 17.2816 18.272 17.655 18.64C18.0336 19.0027 18.223 19.496 18.223 20.12V20.152H17.183V20.088C17.183 19.8907 17.1403 19.712 17.055 19.552C16.975 19.392 16.8523 19.2667 16.687 19.176C16.5216 19.08 16.3136 19.032 16.063 19.032C15.6896 19.032 15.3963 19.1467 15.183 19.376C14.9696 19.6053 14.863 19.9173 14.863 20.312V21.688C14.863 22.0773 14.9696 22.392 15.183 22.632C15.3963 22.8667 15.695 22.984 16.079 22.984C16.463 22.984 16.743 22.8827 16.919 22.68C17.095 22.4773 17.183 22.2213 17.183 21.912V21.832H15.855V20.936H18.223V23.8H17.247V23.264H17.103C17.0656 23.3547 17.0043 23.4507 16.919 23.552C16.839 23.6533 16.7163 23.7387 16.551 23.808C16.3856 23.8773 16.159 23.912 15.871 23.912Z" fill="white"/>
</g>
<defs>
<clipPath id="clip0_701_7437">
<rect width="32" height="32" fill="white"/>
</clipPath>
</defs>
</svg>
