<svg width="32" height="32" viewBox="0 0 32 32" fill="none" xmlns="http://www.w3.org/2000/svg">
<path d="M16 16.7032L21.0916 21.7936L19.3936 23.4916L17.2 21.298V28H14.8V21.2956L12.6064 23.4916L10.9084 21.7936L16 16.7032ZM16 4C18.0604 4.0001 20.0489 4.75734 21.5874 6.12774C23.126 7.49815 24.1073 9.38616 24.3448 11.4328C25.8379 11.84 27.1405 12.7589 28.0248 14.029C28.9091 15.2991 29.319 16.8396 29.1827 18.3813C29.0465 19.9229 28.3728 21.3676 27.2795 22.463C26.1861 23.5583 24.7426 24.2346 23.2012 24.3736V21.9568C23.7534 21.8779 24.2844 21.6899 24.7631 21.4036C25.2418 21.1173 25.6587 20.7385 25.9895 20.2893C26.3202 19.8401 26.5582 19.3296 26.6894 18.7874C26.8207 18.2453 26.8427 17.6824 26.7541 17.1317C26.6654 16.581 26.468 16.0534 26.1733 15.5798C25.8785 15.1062 25.4924 14.6961 25.0375 14.3734C24.5825 14.0506 24.0678 13.8217 23.5234 13.7001C22.979 13.5784 22.4159 13.5664 21.8668 13.6648C22.0547 12.7899 22.0446 11.884 21.8371 11.0135C21.6296 10.143 21.23 9.3299 20.6675 8.63384C20.1051 7.93777 19.3941 7.37633 18.5866 6.99063C17.7791 6.60494 16.8955 6.40476 16.0006 6.40476C15.1057 6.40476 14.2222 6.60494 13.4146 6.99063C12.6071 7.37633 11.8961 7.93777 11.3337 8.63384C10.7713 9.3299 10.3717 10.143 10.1641 11.0135C9.95663 11.884 9.94647 12.7899 10.1344 13.6648C9.03959 13.4592 7.90795 13.6969 6.98842 14.3257C6.06889 14.9545 5.4368 15.9228 5.23121 17.0176C5.02561 18.1124 5.26335 19.2441 5.89212 20.1636C6.52089 21.0831 7.48919 21.7152 8.58401 21.9208L8.80001 21.9568V24.3736C7.25855 24.2348 5.81489 23.5587 4.72137 22.4634C3.62784 21.3682 2.954 19.9235 2.81762 18.3818C2.68123 16.8401 3.09098 15.2995 3.97525 14.0293C4.85952 12.7591 6.16206 11.8401 7.65521 11.4328C7.89245 9.38605 8.87369 7.49789 10.4123 6.12744C11.9509 4.75698 13.9396 3.99984 16 4Z" fill="#525866"/>
</svg>
