<svg width="32" height="32" viewBox="0 0 32 32" fill="none" xmlns="http://www.w3.org/2000/svg">
<path d="M6.19998 3.2C6.19998 1.76406 7.36404 0.6 8.79998 0.6H21.6C21.697 0.6 21.79 0.638528 21.8586 0.707106L30.4929 9.34142C30.5614 9.41 30.6 9.50301 30.6 9.6V28.8C30.6 30.2359 29.4359 31.4 28 31.4H8.79998C7.36404 31.4 6.19998 30.2359 6.19998 28.8V3.2Z" stroke="#D0D5DD" stroke-width="1.2"/>
<path d="M21.6 0.400024V6.40003C21.6 8.16734 23.0327 9.60002 24.8 9.60002H30.8" stroke="#D0D5DD" stroke-width="1.2"/>
<path d="M1.5 15.8C1.5 14.9164 2.21634 14.2 3.1 14.2H21.7C22.5837 14.2 23.3 14.9164 23.3 15.8V25.8C23.3 26.6837 22.5837 27.4 21.7 27.4H3.1C2.21635 27.4 1.5 26.6837 1.5 25.8V15.8Z" fill="#473BF0"/>
<path d="M4.44365 23.8V18.2H6.40365L7.37165 23.08H7.51565L8.48365 18.2H10.4436V23.8H9.41965V18.976H9.27565L8.31565 23.8H6.57165L5.61165 18.976H5.46765V23.8H4.44365ZM11.4983 23.8V18.2H13.8023C14.1543 18.2 14.4637 18.272 14.7303 18.416C15.0023 18.5547 15.213 18.752 15.3623 19.008C15.517 19.264 15.5943 19.568 15.5943 19.92V20.032C15.5943 20.3787 15.5143 20.6827 15.3543 20.944C15.1997 21.2 14.9863 21.4 14.7143 21.544C14.4477 21.6827 14.1437 21.752 13.8023 21.752H12.5543V23.8H11.4983ZM12.5543 20.792H13.6983C13.949 20.792 14.1517 20.7227 14.3063 20.584C14.461 20.4453 14.5383 20.256 14.5383 20.016V19.936C14.5383 19.696 14.461 19.5067 14.3063 19.368C14.1517 19.2293 13.949 19.16 13.6983 19.16H12.5543V20.792ZM18.7585 23.8V22.664H16.0065V21.48L17.9425 18.2H19.7825V21.752H20.7105V22.664H19.7825V23.8H18.7585ZM16.9825 21.752H18.7585V18.856H18.6145L16.9825 21.624V21.752Z" fill="white"/>
</svg>
