<svg width="79" height="32" viewBox="0 0 79 32" fill="none" xmlns="http://www.w3.org/2000/svg">
<g clip-path="url(#clip0_1045_4147)">
<path d="M45.1807 0H50.7188C50.7253 3.34919 50.708 6.69838 50.7274 10.0454C48.9073 11.2108 47.0332 12.2919 45.1807 13.4054C45.1807 8.93838 45.1807 4.46919 45.1807 0Z" fill="#838383"/>
<path d="M52.8039 12.1254C54.6478 11.146 56.4809 10.1514 58.3097 9.1438C58.3205 16.7135 58.314 24.2811 58.314 31.8508C56.4744 31.8508 54.637 31.8508 52.7974 31.8508C52.8017 25.2757 52.7867 18.7006 52.8039 12.1254Z" fill="#838383"/>
<path d="M63.4406 9.93298C65.2888 8.94919 67.441 9.23028 69.451 9.18919C71.3876 9.24109 73.4321 8.95784 75.2544 9.7773C76.9646 10.5016 78.1421 12.1665 78.5001 13.9654V21.4811C78.3642 22.0368 78.1528 22.6292 77.6482 22.9514C76.9063 23.4422 75.9725 23.4119 75.1207 23.4573C72.0454 23.4789 68.9701 23.4551 65.8969 23.4681C65.9055 24.2897 65.9616 25.1935 66.5202 25.8487C67.0852 26.4757 67.9823 26.6465 68.7911 26.64C72.0281 26.6314 75.263 26.6378 78.5001 26.6357V31.9114C74.5449 31.9135 70.5897 31.9092 66.6345 31.9135C65.0494 31.933 63.4211 31.4249 62.2415 30.3373C60.9928 29.1697 60.3804 27.4292 60.4019 25.7384C60.4084 22.2011 60.4019 18.6616 60.4062 15.1243C60.4278 13.027 61.5341 10.8973 63.4406 9.93298ZM66.8976 14.9319C66.1147 15.427 65.9055 16.4368 65.9099 17.3016C65.912 19.0292 65.9012 20.7546 65.9163 22.4822C66.8544 21.1351 67.8012 19.7968 68.7156 18.4346C70.1907 18.4281 71.6658 18.4368 73.1409 18.4303C73.0525 17.3708 73.2466 16.1687 72.5371 15.28C71.8923 14.5103 70.8032 14.4887 69.8823 14.5038C68.886 14.5449 67.7753 14.346 66.8976 14.9319Z" fill="#838383"/>
<path d="M45.1611 16.307C46.9899 15.254 48.8683 14.2854 50.7208 13.2735C50.7187 19.4832 50.7208 25.693 50.7208 31.9027C48.8748 31.9221 47.0287 31.907 45.1827 31.9113C45.1676 26.7092 45.2086 21.507 45.1611 16.307Z" fill="#838383"/>
<path d="M52.7976 1.48758C54.635 1.48542 56.4746 1.48542 58.3141 1.48758C58.3228 2.82812 58.3055 4.16866 58.3249 5.50704C56.4918 6.62921 54.6458 7.72975 52.7954 8.8238C52.7954 6.37839 52.7954 3.93299 52.7976 1.48758Z" fill="#DD0A0A"/>
<path d="M22.614 28.5124C24.4363 27.5027 26.2802 26.5319 28.1068 25.5265C28.1025 27.6346 28.1435 29.7405 28.1197 31.8465C26.2996 31.8551 24.4794 31.8465 22.6571 31.853C22.5665 30.7416 22.642 29.6259 22.614 28.5124Z" fill="#DD0A0A"/>
<path d="M22.6118 9.20435C24.3091 9.17408 26.0063 9.18705 27.7035 9.19786C27.8588 10.4822 27.9774 11.7687 28.1305 13.053C28.991 11.7643 29.8429 10.4692 30.712 9.18705C32.5516 9.19354 34.3911 9.18489 36.2307 9.18921C37.7554 9.20003 39.347 9.56327 40.5331 10.573C41.84 11.6281 42.5129 13.3038 42.6207 14.9535C40.7725 16.0498 38.9437 17.1762 37.0912 18.2638C37.1322 16.9406 36.5822 15.5741 35.4953 14.7827C34.0073 13.7125 31.9348 13.6562 30.285 14.3676C28.8789 14.9665 28.1327 16.5254 28.1176 18.0022C28.1003 19.8833 28.109 21.7665 28.1154 23.6498C26.2931 24.7762 24.4406 25.853 22.6183 26.9795C22.614 21.053 22.6248 15.1287 22.6118 9.20435Z" fill="#303030"/>
<path d="M0 9.18919C1.78997 9.18919 3.57995 9.18919 5.37207 9.18919C5.36992 13.5503 5.37423 17.9135 5.36776 22.2746C5.3807 23.1481 5.40658 24.0584 5.79908 24.8562C6.38783 26.2119 7.81981 27.0616 9.25826 27.1697C10.66 27.306 12.2279 27.053 13.2501 26C14.1127 25.1373 14.3845 23.8703 14.3802 22.6854C14.3845 18.1881 14.378 13.6887 14.3823 9.18919C16.2154 9.18919 18.0464 9.18487 19.8795 9.19352C19.8881 16.5103 19.873 23.8249 19.8859 31.1416C19.9097 31.4465 19.8514 31.7319 19.7113 32H14.8266C14.6088 30.6897 14.5247 29.3643 14.3629 28.0476C13.5132 29.3341 12.6549 30.6141 11.8117 31.9049C9.88798 31.9222 7.9643 31.907 6.04062 31.9135C4.51591 31.9157 2.94806 31.4443 1.80076 30.4108C0.828132 29.5308 0.146648 28.3027 0 26.9881V9.18919Z" fill="#303030"/>
<path d="M37.1386 20.6184C38.9803 19.6584 40.7919 18.6379 42.625 17.6562C42.5991 22.4368 42.6854 27.2217 42.5797 32H37.2033C37.1149 31.5741 37.1106 31.1373 37.1149 30.7049C37.1386 27.3427 37.0933 23.9806 37.1386 20.6184Z" fill="#303030"/>
<path opacity="0.5" d="M22.6572 31.853C24.4795 31.8465 26.2997 31.8551 28.1199 31.8465L28.1177 32H22.7004L22.6572 31.853Z" fill="#726F6F"/>
</g>
<defs>
<clipPath id="clip0_1045_4147">
<rect width="78.5" height="32" fill="white"/>
</clipPath>
</defs>
</svg>
